HIERARCHY
ROOT hip
{
  OFFSET 0 0 0
  CHANNELS 6 Xposition Yposition Zposition Zrotation Yrotation Xrotation
  JOINT abdomen
  {
    OFFSET 0 20.6881 -0.73152
    CHANNELS 3 Zrotation Xrotation Yrotation
    JOINT chest
    {
      OFFSET 0 11.7043 -0.48768
      CHANNELS 3 Zrotation Xrotation Yrotation
      JOINT neck
      {
        OFFSET 0 22.1894 -2.19456
        CHANNELS 3 Zrotation Xrotation Yrotation
        JOINT head
        {
          OFFSET -0.24384 7.07133 1.2192
          CHANNELS 3 Zrotation Xrotation Yrotation
          JOINT leftEye
          {
            OFFSET 4.14528 8.04674 8.04672
            CHANNELS 3 Zrotation Xrotation Yrotation
            End Site
            {
              OFFSET 1 0 0
            }
          }
          JOINT rightEye
          {
            OFFSET -3.6576 8.04674 8.04672
            CHANNELS 3 Zrotation Xrotation Yrotation
            End Site
            {
              OFFSET 1 0 0
            }
          }
        }
      }
      JOINT rCollar
      {
        OFFSET -2.68224 19.2634 -4.8768
        CHANNELS 3 Zrotation Xrotation Yrotation
        JOINT rShldr
        {
          OFFSET -8.77824 -1.95073 1.46304
          CHANNELS 3 Zrotation Xrotation Yrotation
          JOINT rForeArm
          {
            OFFSET -28.1742 -1.7115 0.48768
            CHANNELS 3 Zrotation Xrotation Yrotation
            JOINT rHand
            {
              OFFSET -22.5879 0.773209 7.07136
              CHANNELS 3 Zrotation Xrotation Yrotation
              JOINT rThumb1
              {
                OFFSET -1.2192 -0.487915 3.41376
                CHANNELS 3 Zrotation Xrotation Yrotation
                JOINT rThumb2
                {
                  OFFSET -3.37035 -0.52449 3.41376
                  CHANNELS 3 Zrotation Xrotation Yrotation
                  End Site
                  {
                    OFFSET -1.78271 -1.18214 1.43049
                  }
                }
              }
              JOINT rIndex1
              {
                OFFSET -7.75947 0.938293 5.60832
                CHANNELS 3 Zrotation Xrotation Yrotation
                JOINT rIndex2
                {
                  OFFSET -2.54057 -0.884171 1.56538
                  CHANNELS 3 Zrotation Xrotation Yrotation
                  End Site
                  {
                    OFFSET -1.62519 -0.234802 1.16502
                  }
                }
              }
              JOINT rMid1
              {
                OFFSET -8.24714 1.18213 3.41376
                CHANNELS 3 Zrotation Xrotation Yrotation
                JOINT rMid2
                {
                  OFFSET -3.10165 -0.590103 1.0647
                  CHANNELS 3 Zrotation Xrotation Yrotation
                  End Site
                  {
                    OFFSET -2.48547 -0.328903 0.83742
                  }
                }
              }
              JOINT rRing1
              {
                OFFSET -8.82822 0.546677 1.51678
                CHANNELS 3 Zrotation Xrotation Yrotation
                JOINT rRing2
                {
                  OFFSET -2.60934 -0.819778 -0.0198488
                  CHANNELS 3 Zrotation Xrotation Yrotation
                  End Site
                  {
                    OFFSET -2.33842 -0.294052 0.168128
                  }
                }
              }
              JOINT rPinky1
              {
                OFFSET -8.27202 -0.0477905 -0.4584
                CHANNELS 3 Zrotation Xrotation Yrotation
                JOINT rPinky2
                {
                  OFFSET -1.82734 -0.647385 -0.700984
                  CHANNELS 3 Zrotation Xrotation Yrotation
                  End Site
                  {
                    OFFSET -1.69225 -0.51767 -0.607171
                  }
                }
              }
            }
          }
        }
      }
      JOINT lCollar
      {
        OFFSET 2.68224 19.2634 -4.8768
        CHANNELS 3 Zrotation Xrotation Yrotation
        JOINT lShldr
        {
          OFFSET 8.77824 -1.95073 1.46304
          CHANNELS 3 Zrotation Xrotation Yrotation
          JOINT lForeArm
          {
            OFFSET 28.1742 -1.7115 0.48768
            CHANNELS 3 Zrotation Xrotation Yrotation
            JOINT lHand
            {
              OFFSET 22.5879 0.773209 7.07136
              CHANNELS 3 Zrotation Xrotation Yrotation
              JOINT lThumb1
              {
                OFFSET 1.2192 -0.487915 3.41376
                CHANNELS 3 Zrotation Xrotation Yrotation
                JOINT lThumb2
                {
                  OFFSET 3.37035 -0.52449 3.41376
                  CHANNELS 3 Zrotation Xrotation Yrotation
                  End Site
                  {
                    OFFSET 1.78271 -1.18214 1.43049
                  }
                }
              }
              JOINT lIndex1
              {
                OFFSET 7.75947 0.938293 5.60832
                CHANNELS 3 Zrotation Xrotation Yrotation
                JOINT lIndex2
                {
                  OFFSET 2.54057 -0.884171 1.56538
                  CHANNELS 3 Zrotation Xrotation Yrotation
                  End Site
                  {
                    OFFSET 1.62519 -0.234802 1.16502
                  }
                }
              }
              JOINT lMid1
              {
                OFFSET 8.24714 1.18213 3.41376
                CHANNELS 3 Zrotation Xrotation Yrotation
                JOINT lMid2
                {
                  OFFSET 3.10165 -0.590103 1.0647
                  CHANNELS 3 Zrotation Xrotation Yrotation
                  End Site
                  {
                    OFFSET 2.48547 -0.328903 0.83742
                  }
                }
              }
              JOINT lRing1
              {
                OFFSET 8.82822 0.546677 1.51678
                CHANNELS 3 Zrotation Xrotation Yrotation
                JOINT lRing2
                {
                  OFFSET 2.60934 -0.819778 -0.0198488
                  CHANNELS 3 Zrotation Xrotation Yrotation
                  End Site
                  {
                    OFFSET 2.33842 -0.294052 0.168128
                  }
                }
              }
              JOINT lPinky1
              {
                OFFSET 8.27202 -0.0477905 -0.4584
                CHANNELS 3 Zrotation Xrotation Yrotation
                JOINT lPinky2
                {
                  OFFSET 1.82734 -0.647385 -0.700984
                  CHANNELS 3 Zrotation Xrotation Yrotation
                  End Site
                  {
                    OFFSET 1.69225 -0.51767 -0.607171
                  }
                }
              }
            }
          }
        }
      }
    }
  }
  JOINT rButtock
  {
    OFFSET -8.77824 4.35084 1.2192
    CHANNELS 3 Zrotation Xrotation Yrotation
    JOINT rThigh
    {
      OFFSET 0 -1.70687 -2.19456
      CHANNELS 3 Zrotation Xrotation Yrotation
      JOINT rShin
      {
        OFFSET 0 -36.8199 0.73152
        CHANNELS 3 Zrotation Xrotation Yrotation
        JOINT rFoot
        {
          OFFSET 0.73152 -45.1104 -5.12064
          CHANNELS 3 Zrotation Xrotation Yrotation
          End Site
          {
            OFFSET -1.1221 -3.69964 12.103
          }
        }
      }
    }
  }
  JOINT lButtock
  {
    OFFSET 8.77824 4.35084 1.2192
    CHANNELS 3 Zrotation Xrotation Yrotation
    JOINT lThigh
    {
      OFFSET 0 -1.70687 -2.19456
      CHANNELS 3 Zrotation Xrotation Yrotation
      JOINT lShin
      {
        OFFSET 0 -36.8199 0.73152
        CHANNELS 3 Zrotation Xrotation Yrotation
        JOINT lFoot
        {
          OFFSET -0.73152 -45.1104 -5.12064
          CHANNELS 3 Zrotation Xrotation Yrotation
          End Site
          {
            OFFSET 1.1221 -3.69964 12.103
          }
        }
      }
    }
  }
}
MOTION
Frames:	4
Frame Time:	0.03333
-0.04680000383814331 50.14070272445679 1.3930000091932015 -18.38039934898303 -29.411501490654 15.113400340655456 14.564099452130106 8.321250201677799 2.872820040146264 2.5822200369545514 -6.646489951624789 0.8854640164531605 0.4012620077527454 13.494399620552315 7.559480057319924 3.962000211567167 -25.12190022017046 15.830100628001357 -0.0 0.0 0.0 -0.0 0.0 0.0 -1.9111699249491502e-14 -5.173279977668652e-14 -4.547479782721932e-13 105.05699743542037 44.94010049321807 -56.803800987166305 -26.778699207140452 -44.58139944857651 92.61220152236038 -4.508779906515136 -50.01649857495207 -9.647600367734345 8.411469841105897e-10 -1.4355599539983021e-09 -2.6104399442101382e-11 1.4503899859469624e-09 -2.4242899431224904e-09 -1.4753700189310307e-11 8.411570227363031e-10 -1.4355599539983021e-09 -2.6118901404804267e-11 7.730910121524428 5.474879855648998 0.41731399283890674 8.411469841105897e-10 -1.4355599539983021e-09 -2.6105800252805817e-11 2.90554006136521 0.9651829962377875 0.10290200252939893 8.411530470429512e-10 -1.4355599539983021e-09 -2.6103399306742562e-11 10.278599710243157 0.7318009818271524 0.025912300303053633 8.411449962639137e-10 -1.4355599539983021e-09 -2.6098199845280875e-11 2.221669932038622 -0.7334870246959406 -0.20891999872313852 -1.917730007038894e-14 -5.173500188955077e-14 -4.548910003462635e-13 -47.57749949404304 16.20740027775286 -36.05510013782576 13.612000110134302 -6.645579828917884 -24.776499261390207 2.1199699094010134 37.62130008055012 -6.218159824150003 8.871660322273501e-10 3.7220198642532342e-09 1.8368699196636443e-09 1.5800999633204103e-09 6.226290023242482e-09 3.139280027008162e-09 8.871569875249747e-10 3.722009925019855e-09 1.8368699196636443e-09 -7.730910121524428 5.474879855648998 -0.41731399283890674 8.871719957673779e-10 3.721999985786475e-09 1.8368599804302647e-09 -2.90554006136521 0.9651829962377875 -0.10290200252939893 8.871619571416645e-10 3.722009925019855e-09 1.8368599804302647e-09 -10.278599710243157 0.7318009818271524 -0.025912300303053633 8.871749775373917e-10 3.7220198642532342e-09 1.8368500411968852e-09 -2.221669932038622 -0.7334870246959406 0.20891999872313852 -2.0321699793705798e-16 0.0 -3.882510030490358e-19 -11.504900411563709 11.657600389516745 -4.071749825585048 0.08768199985118995 33.08399858472148 2.676090101482387 -8.625869808471199 -18.044299400305043 -31.820000361824334 2.0321699793705798e-16 0.0 3.882510030490358e-19 92.65400228008085 -52.339299062606244 78.85299717523395 6.307990045227188 80.92029736151089 -5.898589787037093 -0.4670719743033025 -0.6853490253644544 -4.2573000252380835
-0.009000004138215445 50.119102001190186 1.4090000087890076 -18.335299609893436 -29.33409837188483 15.200999224308163 14.473700190917695 8.310659993369695 2.8267100733897426 2.659159983520629 -6.7092999443454024 0.8753890071797157 0.374241005663808 13.561700035765389 7.5956800599209915 3.9503799253548597 -25.260699909388872 15.90840020909909 -0.0 0.0 0.0 -0.0 0.0 0.0 1.7899599607920053e-13 2.4888699388461874e-13 -3.115949907153354e-13 104.99700105375098 44.99589972364249 -56.799798496312675 -26.780500669534042 -44.578599071016804 92.60309688019674 -4.4956501484962565 -49.96679870345647 -9.630470253295952 2.0020600281283227e-10 -6.757339883373745e-10 -2.0411799810274031e-10 3.527099968169078e-10 -1.1643300033651296e-09 -3.4407200787138805e-10 2.002209986311937e-10 -6.757509844264536e-10 -2.0412500526227292e-10 7.730910121524428 5.474879855648998 0.41731399283890674 2.0020800308354989e-10 -6.757380137268932e-10 -2.0411500390868471e-10 2.90554006136521 0.9651829962377875 0.10290200252939893 2.0021299754832313e-10 -6.757380137268932e-10 -2.0411599783202267e-10 10.278599710243157 0.7318009818271524 0.025912300303053633 2.0020499646545257e-10 -6.757390076502312e-10 -2.041119972905874e-10 2.221669932038622 -0.7334870246959406 -0.20891999872313852 1.7882800459314882e-13 2.4886898873040087e-13 -3.117939937742853e-13 -47.58669975885505 16.196499295837523 -36.06519857251362 13.609799935447912 -6.643890210871953 -24.772300402597942 2.113329898310703 37.57300039783437 -6.20728018657582 7.626870236854048e-10 -5.376810184651125e-10 3.590880028765801e-10 1.3235100064936804e-09 -1.0122600308346566e-09 5.961609828621781e-10 7.626759911363536e-10 -5.376570152165009e-10 3.5909100949467743e-10 -7.730910121524428 5.474879855648998 -0.41731399283890674 7.626870236854048e-10 -5.376810184651125e-10 3.5908499625848275e-10 -2.90554006136521 0.9651829962377875 -0.10290200252939893 7.626810104492102e-10 -5.376800245417746e-10 3.590840023351448e-10 -10.278599710243157 0.7318009818271524 -0.025912300303053633 7.626929872254326e-10 -5.376769930755939e-10 3.590779890989502e-10 -2.221669932038622 -0.7334870246959406 0.20891999872313852 -2.0321699793705798e-16 0.0 -3.882510030490358e-19 -11.572299864519747 11.548500070356837 -4.166239943223474 0.08750789672842074 33.154100231267904 2.6799700758177774 -8.637960097075768 -18.10520078203946 -31.767100546702586 2.0321699793705798e-16 0.0 3.882510030490358e-19 92.75360009855798 -52.453701316109374 78.9604018999324 6.357190032252905 80.99060049863783 -5.954800109472182 -0.4576630151956397 -0.6805770176512898 -4.13299997385396
0.014899995949235745 50.098997354507446 1.483000007647206 -18.298800786516182 -29.2650007631464 15.27659917313645 14.424700413812024 8.300279813378568 2.7826000713995658 2.7210000893791015 -6.757640181309345 0.8656529994046857 0.32949699670000987 13.63669978172036 7.632270237078396 3.963729956974473 -25.365700407499478 15.990999394279347 -0.0 0.0 0.0 -0.0 0.0 0.0 -3.3989300245351256e-13 -4.856750094489521e-13 -4.3291600687824585e-14 104.90999810410335 45.09109890029413 -56.8127997613978 -26.785100801940047 -44.56710044754909 92.58009963326131 -4.488099801255631 -49.93790017307814 -9.62056989409402 -1.0466699549717414e-09 1.7027999981759126e-09 -1.811449976210196e-11 -1.8052599769619192e-09 2.8663299926463205e-09 -7.357019926358211e-11 -1.0466600157383618e-09 1.7027999981759126e-09 -1.812560064338277e-11 7.730910121524428 5.474879855648998 0.41731399283890674 -1.0466699549717414e-09 1.7028099374092922e-09 -1.8115799627467382e-11 2.90554006136521 0.9651829962377875 0.10290200252939893 -1.0466600157383618e-09 1.7027999981759126e-09 -1.811529955978797e-11 10.278599710243157 0.7318009818271524 0.025912300303053633 -1.0466699549717414e-09 1.7027999981759126e-09 -1.8108099827608644e-11 2.221669932038622 -0.7334870246959406 -0.20891999872313852 -3.400630079932032e-13 -4.856869967079598e-13 -4.3440701321371434e-14 -47.55559849246939 16.268899301039657 -36.049198854382865 13.635799904297212 -6.664370106211413 -24.824300340296542 2.099220008145926 37.47000114515058 -6.184130114157707 -1.0309400248328946e-09 -2.493409956244723e-09 -1.5440400270499825e-09 -1.8290799461100697e-09 -4.105789965381309e-09 -2.635660065588511e-09 -1.0309499640662742e-09 -2.4934000170113433e-09 -1.5440299884242692e-09 -7.730910121524428 5.474879855648998 -0.41731399283890674 -1.0309400248328946e-09 -2.493409956244723e-09 -1.5440400270499825e-09 -2.90554006136521 0.9651829962377875 -0.10290200252939893 -1.0309499640662742e-09 -2.493409956244723e-09 -1.5440299884242692e-09 -10.278599710243157 0.7318009818271524 -0.025912300303053633 -1.0309400248328946e-09 -2.493409956244723e-09 -1.5440299884242692e-09 -2.221669932038622 -0.7334870246959406 0.20891999872313852 -2.0321699793705798e-16 0.0 -3.882510030490358e-19 -11.644099666848568 11.498299887504537 -4.230940190796889 0.08852850308123518 33.17449859122415 2.6832600925636076 -8.609119623305387 -18.098300583430458 -31.710201655821795 2.0321699793705798e-16 0.0 3.882510030490358e-19 92.8447011617076 -52.54119945447182 79.04379850969826 6.447920130753239 81.09349729848407 -6.05299005520664 -0.44816702453691215 -0.6900949929814083 -4.003509832474274
0.03809999652730767 50.08440017700195 1.5840000083699124 -18.295199569276292 -29.353499524222254 15.286699315371605 14.381999778668396 8.303549766443712 2.7597400685777678 2.760089902329319 -6.789470143502074 0.8609799760736333 0.2991239992346094 13.699499956044043 7.657080045464821 3.9846700363092626 -25.46470058442423 16.051299719366806 -0.0 0.0 0.0 -0.0 0.0 0.0 -7.422120099625855e-13 -1.0440199860751786e-12 1.5584699739891362e-13 104.70399959873576 45.17229960424183 -56.712201320207264 -26.802999312660067 -44.523298444401796 92.49130034386198 -4.461500056419839 -49.83679971298361 -9.585819599144287 -1.942749988655562e-09 3.47196982359793e-09 1.4988399966117823e-10 -3.3575000703347175e-09 5.8669899171255816e-09 1.7908299494606198e-10 -1.942749988655562e-09 3.47196982359793e-09 1.4986799749543714e-10 7.730910121524428 5.474879855648998 0.41731399283890674 -1.942749988655562e-09 3.47196982359793e-09 1.4987700492568736e-10 2.90554006136521 0.9651829962377875 0.10290200252939893 -1.9427400494221824e-09 3.47196982359793e-09 1.4987999911974296e-10 10.278599710243157 0.7318009818271524 0.025912300303053633 -1.942749988655562e-09 3.47196982359793e-09 1.4989000047333116e-10 2.221669932038622 -0.7334870246959406 -0.20891999872313852 -7.423599822407804e-13 -1.0440199860751786e-12 1.5574800544927503e-13 -47.50040031869194 16.36670077976507 -36.05019947709628 13.671800123865056 -6.692709841738265 -24.89630077943223 2.080549899493108 37.332700682454984 -6.1533699303437315 -2.2944799770612436e-09 -3.736339914137189e-09 -2.8421100687469756e-09 -4.048900178932642e-09 -6.057080140925936e-09 -4.839590048437824e-09 -2.2944899162946234e-09 -3.736339914137189e-09 -2.8420999307289283e-09 -7.730910121524428 5.474879855648998 -0.41731399283890674 -2.2944799770612436e-09 -3.736339914137189e-09 -2.8421100687469756e-09 -2.90554006136521 0.9651829962377875 -0.10290200252939893 -2.2944899162946234e-09 -3.736339914137189e-09 -2.8420999307289283e-09 -10.278599710243157 0.7318009818271524 -0.025912300303053633 -2.2944799770612436e-09 -3.736339914137189e-09 -2.8420999307289283e-09 -2.221669932038622 -0.7334870246959406 0.20891999872313852 -2.0321699793705798e-16 0.0 -3.882510030490358e-19 -11.732099824115013 11.465800139886325 -4.2704699106183375 0.08931959773566 33.19160138490586 2.68606004323649 -8.572749719748717 -18.086400686349002 -31.64250082076863 2.0321699793705798e-16 0.0 3.882510030490358e-19 92.90130293935951 -52.62050136583026 79.09270266415555 6.554880039381993 81.20620224997845 -6.168269988018115 -0.43801098680835276 -0.7030860127827726 -3.8620600298578944
